<?xml version="1.0" encoding="UTF-8"?>
<svg id="Layer_2" data-name="Layer 2" xmlns="http://www.w3.org/2000/svg" viewBox="0 0 900.5 116.34">
  <defs>
    <style>
      .cls-1 {
        fill: #0f1d39;
        stroke-width: 0px;
      }
    </style>
  </defs>
  <g id="Layer_1-2" data-name="Layer 1">
    <g>
      <polygon class="cls-1" points="72.15 41.96 37.51 41.96 37.51 2.54 0 2.54 0 113.79 37.51 113.79 37.51 72.79 72.15 72.79 72.15 113.79 109.66 113.79 109.66 2.54 72.15 2.54 72.15 41.96"/>
      <path class="cls-1" d="m231.08,16.45c-5.62-5.24-12.24-9.3-19.87-12.16-7.63-2.86-16-4.29-25.11-4.29s-17.35,1.43-25.03,4.29c-7.68,2.86-14.33,6.91-19.95,12.16-5.62,5.24-9.99,11.39-13.11,18.44-3.13,7.05-4.69,14.81-4.69,23.28s1.56,16.11,4.69,23.2c3.12,7.1,7.49,13.27,13.11,18.52,5.61,5.25,12.26,9.3,19.95,12.16,7.68,2.86,16.02,4.29,25.03,4.29s17.48-1.43,25.11-4.29c7.63-2.86,14.25-6.91,19.87-12.16,5.61-5.24,9.99-11.42,13.11-18.52,3.12-7.1,4.69-14.83,4.69-23.2s-1.56-16.24-4.69-23.28c-3.13-7.04-7.5-13.19-13.11-18.44Zm-21.93,53.4c-1.27,3.44-3.05,6.36-5.32,8.74-2.28,2.38-4.93,4.21-7.95,5.48-3.02,1.27-6.28,1.91-9.77,1.91s-6.75-.64-9.77-1.91c-3.02-1.27-5.67-3.1-7.95-5.48-2.28-2.38-4.05-5.3-5.32-8.74-1.27-3.44-1.91-7.34-1.91-11.68s.64-8.24,1.91-11.68c1.27-3.44,3.04-6.36,5.32-8.74,2.28-2.38,4.93-4.21,7.95-5.48,3.02-1.27,6.28-1.91,9.77-1.91s6.75.64,9.77,1.91c3.02,1.27,5.67,3.1,7.95,5.48,2.28,2.38,4.05,5.3,5.32,8.74,1.27,3.44,1.91,7.34,1.91,11.68s-.64,8.24-1.91,11.68Z"/>
      <polygon class="cls-1" points="252.54 31.63 285.12 31.63 285.12 113.79 322.63 113.79 322.63 31.63 355.21 31.63 355.21 2.54 252.54 2.54 252.54 31.63"/>
      <path class="cls-1" d="m510.64,66.67c4.13-6.2,6.2-13.59,6.2-22.17s-2.07-16.02-6.2-22.33c-4.13-6.3-9.99-11.15-17.56-14.54-7.58-3.39-16.56-5.09-26.94-5.09h-53.56v111.25h37.51v-27.97h10.22l18.87,27.97h40.05l-23.35-34.22c6.23-3.19,11.16-7.49,14.77-12.91Zm-35.36-31.71c2.49,2.33,3.73,5.51,3.73,9.54s-1.25,7.21-3.73,9.54c-2.49,2.33-6.33,3.5-11.52,3.5h-13.67v-26.06h13.67c5.19,0,9.03,1.17,11.52,3.5Z"/>
      <path class="cls-1" d="m634.29,16.45c-5.62-5.24-12.24-9.3-19.87-12.16s-16-4.29-25.11-4.29-17.35,1.43-25.03,4.29c-7.68,2.86-14.33,6.91-19.95,12.16-5.62,5.24-9.99,11.39-13.11,18.44-3.13,7.05-4.69,14.81-4.69,23.28s1.56,16.11,4.69,23.2c3.12,7.1,7.49,13.27,13.11,18.52,5.62,5.25,12.26,9.3,19.95,12.16,7.68,2.86,16.02,4.29,25.03,4.29s17.48-1.43,25.11-4.29,14.25-6.91,19.87-12.16c5.61-5.24,9.98-11.42,13.11-18.52,3.12-7.1,4.69-14.83,4.69-23.2s-1.56-16.24-4.69-23.28c-3.13-7.04-7.5-13.19-13.11-18.44Zm-21.93,53.4c-1.27,3.44-3.05,6.36-5.32,8.74-2.28,2.38-4.93,4.21-7.95,5.48s-6.28,1.91-9.78,1.91-6.75-.64-9.77-1.91-5.67-3.1-7.95-5.48c-2.28-2.38-4.05-5.3-5.32-8.74-1.27-3.44-1.91-7.34-1.91-11.68s.64-8.24,1.91-11.68c1.27-3.44,3.04-6.36,5.32-8.74,2.28-2.38,4.93-4.21,7.95-5.48s6.28-1.91,9.77-1.91,6.76.64,9.78,1.91,5.67,3.1,7.95,5.48c2.28,2.38,4.05,5.3,5.32,8.74,1.27,3.44,1.91,7.34,1.91,11.68s-.64,8.24-1.91,11.68Z"/>
      <path class="cls-1" d="m706.36,37.83c2.28-2.44,5.01-4.29,8.19-5.56s6.73-1.91,10.65-1.91c4.98,0,9.46,1.14,13.43,3.42,3.97,2.28,7.6,5.48,10.89,9.62l23.68-21.14c-5.51-7.2-12.48-12.71-20.9-16.53-8.42-3.81-18.09-5.72-29-5.72-8.9,0-17.14,1.41-24.71,4.21-7.58,2.81-14.14,6.81-19.71,12-5.56,5.19-9.88,11.34-12.95,18.44-3.07,7.1-4.61,14.94-4.61,23.52s1.53,16.42,4.61,23.52c3.07,7.1,7.39,13.25,12.95,18.44,5.56,5.19,12.13,9.19,19.71,12,7.57,2.81,15.81,4.21,24.71,4.21,10.91,0,20.58-1.93,29-5.8,8.42-3.87,15.39-9.35,20.9-16.45l-23.68-21.14c-3.29,4.13-6.91,7.34-10.89,9.62-3.97,2.28-8.45,3.42-13.43,3.42-3.92,0-7.47-.64-10.65-1.91s-5.91-3.12-8.19-5.56c-2.28-2.44-4.05-5.38-5.32-8.82-1.27-3.44-1.91-7.28-1.91-11.52s.64-8.08,1.91-11.52c1.27-3.44,3.04-6.38,5.32-8.82Z"/>
      <polygon class="cls-1" points="857.11 113.79 900.5 113.79 853.76 51.57 898.27 2.54 857.43 2.54 820.87 42.84 820.87 2.54 784 2.54 784 113.79 820.87 113.79 820.87 86.25 829.22 76.97 857.11 113.79"/>
    </g>
  </g>
</svg>