<?xml version="1.0" encoding="UTF-8"?>
<svg id="Layer_2" data-name="Layer 2" xmlns="http://www.w3.org/2000/svg" viewBox="0 0 244.86 85.67">
  <defs>
    <style>
      .cls-1 {
        fill: #58595b;
      }

      .cls-1, .cls-2, .cls-3, .cls-4 {
        stroke-width: 0px;
      }

      .cls-2 {
        fill: #231f20;
      }

      .cls-3 {
        fill: #c7c8ca;
      }

      .cls-4 {
        fill: #007db1;
      }
    </style>
  </defs>
  <g id="Layer_1-2" data-name="Layer 1">
    <g>
      <path class="cls-2" d="m122.88,53.26c-.52,0-.87-.05-1.47-.13l-1.48-.18c-1.08-.12-1.33-.15-2.75-.59l-.57-.17c-1.42-.42-3.01-.89-4.17-1.97-1.99-1.23-3.74-2.81-5.17-4.65-.39-.33-.79-.72-1.18-1.31-.7-1.08-1.08-1.82-1.61-3.14l-.22-.55c-.59-1.43-1.27-3.05-1-4.74,0-.02,0-.04,0-.05-.05-.43-.08-.87-.1-1.31-.08-.12-.15-.28-.17-.48l-.04-.03.03-.05c-.06-.77.03-1.54.25-2.25.13-1.35.4-2.65.79-3.91.15-.69.41-1.41.65-2.06.09-.24.17-.47.25-.69.32-.95,1.09-2.34,2-3.16.18-.16.34-.31.48-.45.53-.66,1.1-1.29,1.71-1.88l.05-.06c1.2-1.42,3.81-3.28,5.69-3.81,2.41-1.06,5.07-1.65,7.87-1.65.78,0,1.55.05,2.31.14.6.02,1.2.07,1.95.23,1.68.36,1.77.39,3.27,1,1.27.51,2.06.83,3.23,1.59,1.37.89,2.8,1.91,4.07,3.41,1.04,1.23,1.67,2.25,1.92,3.11,1.74,2.89,2.76,6.26,2.8,9.87.05.5.07,1.03.03,1.68-.04.61-.14,1.11-.26,1.59-.73,4.65-3.1,8.76-6.5,11.72-.88.84-1.81,1.64-2.97,2.13-.97.57-2,1.06-3.08,1.46-.04.03-.08.05-.12.08-1.41.97-3.16,1.08-4.71,1.17l-.57.04c-.53.04-.91.05-1.22.05Zm-9.4-4.22c2.7,1.62,5.86,2.55,9.24,2.55,2.13,0,4.18-.37,6.08-1.06.96-.63,1.71-.95,2.92-1.39.06-.02.12-.04.17-.07.93-.55,1.82-1.19,2.63-1.9.16-.16.32-.31.48-.47l.42-.41c.68-.65,1.03-1.18,1.48-1.85.14-.21.29-.43.46-.68.75-1.06,1.14-1.68,1.63-2.74.53-1.13.74-1.74,1.05-2.99.09-.36.19-.69.28-1.01.07-.25.15-.5.21-.74.14-.89.21-1.81.21-2.73v-.13c-.03-.28-.07-.57-.12-.88-.04-.26-.08-.54-.12-.84-.19-1.56-.42-3.09-1.14-4.58-.14-.29-.26-.54-.38-.77-.37-.73-.66-1.32-.94-2.28-2.84-4.59-7.69-7.82-13.31-8.45-.13,0-.27,0-.43,0-.24,0-.51,0-.86-.02-1.29-.04-3.18-.05-4.68.46-.15.05-.29.1-.46.17-.28.11-.62.23-1.13.4-.44.14-.84.24-1.22.33-.26.06-.5.12-.74.19-1.85.85-3.53,2-4.99,3.4-.64.76-1.07,1.26-1.69,1.87-1.29,1.64-2.3,3.51-2.97,5.53-.08.36-.11.71-.15,1.09-.04.39-.09.79-.17,1.24-.14.74-.3,1.18-.43,1.53l-.06.16c-.03.4-.06.81-.06,1.22.09.12.16.28.19.44h0s0,.01,0,.01c0,0,0,0,0,.01.12.73.04,1.34-.03,1.93,0,.07-.02.15-.03.22.41,3.25,1.69,6.24,3.6,8.72.43.32.88.68,1.29,1.13.81.87,1.36,1.36,2.36,2.11.39.3.7.59.99.87.14.13.27.26.41.38Zm9.52.57c-.61,0-1.2-.07-1.74-.23l-.33-.1s-.01,0-.02,0c-.9-.1-1.77-.28-2.62-.53-.62-.08-1.24-.2-2.06-.56-.77-.34-1.25-.71-1.7-1.09-2.04-1.24-3.77-2.92-5.07-4.92-.26-.34-.51-.72-.77-1.21-.23-.44-.39-.82-.5-1.17-.51-1.19-.88-2.46-1.09-3.79-.15-.42-.27-.88-.32-1.54-.08-.12-.12-.26-.12-.42v-.57c.02-.93.15-1.42.34-1.92l.06-.15c.29-2.14,1.02-4.14,2.08-5.92.21-.58.44-1.14,1.07-1.92,1.18-1.46,2.48-2.94,4.14-3.55l.32-.11c.08-.03.16-.05.25-.08,2.31-1.32,4.97-2.07,7.81-2.07,1.12,0,2.22.12,3.28.34.04,0,.08.02.12.03,1.35.29,2.03.43,3.37,1.06.62.29,1.06.58,1.45.89,3.58,2.19,6.22,5.75,7.19,9.95.15.64.24,1.14.29,1.65.08.62.11,1.26.11,1.9,0,.15,0,.31,0,.46.01.14.02.27.03.4.06.72.13,1.4-.1,2.44-.31,1.44-.6,2.11-1.19,3.37-.59,1.28-1.02,1.9-1.86,3.01-.69.91-1.24,1.35-1.93,1.91-.02.02-.05.04-.07.06-.36.33-.74.65-1.13.94-.02.02-.04.04-.06.05-.68.59-1.21,1.06-2.2,1.59-1.33.71-1.97.93-3.34,1.27-1.17.29-2.46.56-3.68.56Zm-1.77-1.86c.49.05.98.08,1.48.08,3.23,0,6.21-1.08,8.6-2.89.16-.14.33-.29.53-.45.2-.17.38-.31.55-.45,2.71-2.51,4.45-6.06,4.58-10.01-.02-.22-.03-.45-.03-.71-.01-.6-.02-1.05-.06-1.49-.06-.48-.14-.94-.24-1.4-.02-.08-.04-.17-.06-.25-.21-.84-.49-1.36-.84-2.01-.14-.27-.3-.55-.46-.88-.12-.24-.22-.45-.31-.65-.37-.78-.61-1.3-1.25-2.08-.79-.97-1.19-1.27-2.15-2l-.16-.12c-.32-.24-.59-.47-.85-.69-.18-.15-.34-.29-.5-.42-1.32-.8-2.78-1.39-4.34-1.72-1.21-.25-1.76-.24-3.04-.22-1.33.02-1.85.14-3.14.46l-.59.14c-.89.21-1.49.36-2.42.81-.35.17-.66.3-.96.41-2.07,1.2-3.81,2.91-5.05,4.95-.11.32-.25.71-.51,1.25-.5,1.03-.64,1.6-.9,2.62l-.09.36c-.16.65-.33,1.06-.46,1.39-.07.58-.11,1.17-.11,1.77,0,.71.05,1.41.15,2.1l.06.14c.14.33.31.74.48,1.4.1.38.17.72.24,1.04.08.36.14.69.25,1.02.31.7.67,1.38,1.09,2.02.21.27.42.51.66.78.19.21.39.43.6.69.88,1.05,1.25,1.37,2.29,2.12.37.27.67.53.96.78.07.06.13.11.19.17,1,.6,2.07,1.07,3.2,1.41.08,0,.15.02.23.03.34.04.7.09,1.12.17.46.09.84.2,1.19.3.02,0,.04.01.07.02Z"/>
      <polygon class="cls-2" points="123.08 56.01 122.48 56 122.84 33.77 101.56 33.39 101.57 32.78 122.85 33.16 123.27 7.64 123.87 7.65 123.45 33.17 145.66 33.57 145.65 34.18 123.44 33.78 123.08 56.01"/>
      <path class="cls-2" d="m125.12,10.54h0c-.44-.09-.99-.36-1.01-.85-.03-.75.94-.66,1.45-.64.6.02,1.44.12,1.4.91,0,.12-.07.43-.24.42-.07,0-.12-.09-.19-.16-.08-.09-.18-.17-.35-.17-.3-.02-.48.21-.49.48-.02.29.24.52.53.53.69.04.94-.76.97-1.3.05-.95-.62-1.63-1.67-1.69-.83-.03-1.56.45-1.67,1.27-.03.22,0,.47.1.77l-.56.31-.53-.37c.13-.28.19-.53.18-.75-.03-.83-.69-1.38-1.52-1.44-1.05-.06-1.79.54-1.84,1.49-.03.54.13,1.36.82,1.4.29.02.56-.18.57-.47.01-.27-.14-.52-.43-.53-.17,0-.28.06-.36.14-.08.07-.14.15-.2.14-.19,0-.21-.31-.19-.45.11-.79.77-.81,1.44-.76.51.04,1.52.04,1.41.79-.07.49-.64.7-1.08.73v.02c.43.12,1.27.4,1.6.97l-1.4,1.26.23.26,1.23-1.11,1.11,1.23.26-.23-1.26-1.4c.4-.53,1.24-.72,1.7-.79"/>
      <path class="cls-2" d="m125.4,7.46c.01-.27-.06-.67-.41-.69-.14,0-.28.09-.28.23,0,.13.07.26.21.26.08,0,.14-.03.18-.07.04-.03.07-.07.1-.07.09,0,.1.16.09.22-.05.39-.38.4-.71.38-.25-.02-.75-.02-.7-.39.04-.24.32-.35.54-.36h0c-.2-.06-.58-.19-.76-.43.04-.01.08-.03.11-.06.1-.09.11-.25.02-.35-.09-.1-.25-.11-.35-.02-.1.09-.11.25-.02.35.03.03.06.05.09.06-.21.23-.59.32-.8.35h0c.22.04.49.18.5.42.01.37-.46.33-.72.32-.3,0-.71-.06-.69-.45,0-.06.03-.21.12-.21.03,0,.06.04.09.08.04.04.09.08.17.09.15,0,.24-.1.24-.24,0-.14-.12-.26-.26-.26-.34-.02-.47.37-.48.64-.03.47.31.81.83.84.41.01.77-.22.83-.63.02-.11,0-.23-.05-.38l.28-.15.26.18c-.07.14-.09.26-.09.37.01.41.34.69.75.71.52.03.89-.27.91-.74"/>
      <polygon class="cls-2" points="98.41 59.86 97.76 59.23 123.37 33.04 99.41 7.46 100.07 6.84 124.01 32.39 150.64 5.15 151.29 5.79 124.63 33.05 146.58 56.47 145.92 57.09 123.99 33.7 98.41 59.86"/>
      <path class="cls-3" d="m123.75,14.09c.09.32-.44.47-.35.79.09.32.61.18.7.51.09.32-.44.46-.35.79.09.32.61.18.7.51.09.32-.44.46-.35.79s.61.18.7.51c.09.32-.44.47-.35.79.09.32.61.18.7.51.09.32-.44.47-.35.79.09.32.61.18.7.51.09.32-.44.47-.35.79.09.32.61.18.7.51.09.32-.44.47-.35.79.09.32.61.18.7.51s-.44.46-.35.79c.09.32.61.18.7.51.09.32-.44.46-.35.79s.61.18.7.51q.09.32.38.15c.29-.17,0-.64.3-.81.29-.17.57.3.86.12.29-.17,0-.64.3-.81.29-.17.57.3.86.12.29-.17,0-.64.3-.81.29-.17.57.3.86.12.29-.17,0-.64.3-.81.29-.17.57.3.86.12.29-.17,0-.64.3-.81.29-.17.57.3.86.12.29-.17,0-.64.3-.81.29-.17.57.3.86.12.29-.17,0-.64.3-.81.29-.17.57.3.86.12.29-.17.82-.66.62-.39-.19.28-.64-.04-.83.24-.19.27.26.59.06.86-.19.27-.64-.04-.83.24-.19.28.26.59.06.86-.19.27-.64-.04-.83.24s.26.59.06.86c-.19.28-.64-.04-.83.24-.19.27.26.59.06.86-.19.27-.64-.04-.83.24-.19.28.26.59.06.86-.19.28-.64-.04-.83.24-.19.28.26.59.06.86-.19.28-.64-.04-.83.24-.19.27.26.59.06.86-.19.28-.64-.03-.83.24-.19.27.26.59.06.86s-.64-.04-.83.24c-.19.28-.38.35-.06.43.32.09.18.61.51.7.32.09.47-.44.79-.36.32.09.18.61.51.7.32.09.47-.44.79-.36.32.09.18.61.51.7.32.09.47-.44.79-.36.32.09.18.61.51.7.32.09.47-.44.79-.36.32.09.19.61.51.7.32.09.47-.44.79-.36s.18.61.51.7c.32.09.47-.44.79-.36.32.09.18.61.51.7.32.09.47-.44.79-.36.32.09.18.61.51.7.32.09.47-.44.79-.36.32.09.19.61.51.7.32.09.47-.44.79-.36.32.09.18.61.51.7.32.09.42.09.09.12-.33.04-.39-.51-.72-.47-.33.03-.28.57-.61.61-.33.04-.39-.51-.72-.47-.33.03-.28.57-.61.61-.33.04-.39-.51-.72-.48-.33.04-.28.57-.61.61-.33.04-.39-.51-.73-.48-.33.04-.28.57-.61.61-.33.04-.39-.51-.73-.48-.33.04-.28.57-.61.61-.33.04-.39-.51-.72-.48-.33.04-.28.57-.61.61-.33.04-.39-.51-.73-.48-.33.04-.28.57-.61.61-.33.04-.39-.51-.73-.48-.33.04-.28.57-.61.61-.33.04-.39-.51-.73-.47-.33.04-.28.57-.61.61-.33.04-.7-.14-.51.14.19.28.64-.03.83.25.19.28-.26.58-.07.86.19.28.64-.03.83.25.19.28-.26.58-.07.86.19.28.64-.03.83.25.19.28-.26.58-.07.86.19.28.64-.03.83.25.19.28-.26.58-.08.86.19.28.64-.03.83.25.19.28-.26.58-.07.86.19.28.64-.03.83.25.19.28-.26.58-.07.86.19.28.64-.03.83.25.19.28-.26.58-.07.86.19.28.64-.03.83.25.19.28-.26.58-.07.86.19.28.64-.03.83.25.19.28-.26.58-.07.86.19.28.64-.03.83.25.19.28.37.47.1.26-.27-.2-.6.24-.87.03-.27-.2.06-.63-.21-.84-.27-.2-.6.24-.87.03-.27-.2.06-.63-.21-.84-.27-.2-.6.24-.87.03-.27-.2.06-.63-.21-.84-.27-.2-.6.24-.87.03-.27-.2.06-.63-.21-.84-.27-.2-.6.24-.87.03-.27-.2.06-.63-.21-.84-.27-.2-.6.24-.87.03-.27-.2.06-.63-.21-.84-.27-.2-.6.24-.87.03-.27-.2.06-.63-.21-.84-.27-.2-.6.24-.87.03-.27-.2.06-.63-.21-.84-.27-.2-.6.24-.87.03-.27-.2.06-.63-.21-.84-.27-.2-.6.24-.87.03-.27-.2-.2-.02-.27.31-.07.33.46.44.39.77-.07.33-.61.21-.68.54-.07.33.46.44.39.77-.07.33-.61.21-.68.54-.07.33.46.44.39.77-.07.33-.61.21-.68.54-.07.33.46.44.39.77-.07.33-.61.21-.68.54-.07.33.46.44.39.77-.07.33-.61.21-.68.54-.07.33.46.44.39.77-.07.33-.61.21-.68.54-.07.33.46.44.39.77-.07.33-.61.21-.68.54-.07.33.46.44.39.77-.07.33-.61.21-.68.54-.07.33.46.44.39.77-.07.33-.61.21-.68.54-.07.33.46.44.39.77-.07.33-.61.21-.68.54-.07.33.46.44.39.77-.07.33-.08-.05-.15-.38-.08-.33-.61-.2-.69-.53s.45-.45.38-.78c-.08-.33-.61-.2-.69-.53-.08-.33.45-.45.38-.78-.08-.33-.61-.2-.69-.53-.08-.33.45-.45.38-.77-.08-.33-.61-.2-.69-.53-.08-.33.45-.45.37-.78-.07-.33-.61-.2-.69-.53-.08-.33.45-.45.38-.78-.08-.33-.61-.2-.69-.53-.08-.33.45-.45.38-.78-.08-.33-.61-.2-.69-.53-.08-.33.45-.45.37-.78-.07-.33-.61-.2-.69-.53-.08-.33.45-.45.38-.78-.08-.33-.61-.2-.69-.53-.08-.33.45-.45.38-.77-.08-.33-.61-.2-.69-.53-.08-.33.45-.45.37-.78-.08-.33-.29.31-.55.53-.26.22-.61-.2-.86.01s.09.63-.17.85c-.26.22-.61-.2-.86.01-.26.22.09.63-.17.85-.26.22-.61-.2-.86.01s.09.63-.16.85c-.26.22-.61-.2-.86.01s.09.63-.16.85c-.26.22-.61-.2-.86.01-.26.22.09.63-.16.85-.26.22-.61-.2-.86.01-.26.21.09.63-.17.85-.26.22-.61-.2-.86.01-.26.22.09.63-.16.85-.26.22-.61-.2-.86.01-.26.22.09.63-.16.85s-.61-.2-.86.01c-.26.21.09.63-.16.85s0-.09.16-.38c.16-.29-.31-.56-.15-.85.16-.29.64-.03.8-.32.16-.29-.31-.56-.15-.85.16-.29.64-.03.81-.32.16-.29-.31-.56-.15-.85.16-.29.64-.03.81-.32.16-.29-.31-.56-.15-.85.16-.29.64-.03.81-.32.16-.29-.31-.56-.15-.85.16-.29.64-.03.81-.32.16-.29-.31-.56-.15-.85.16-.29.64-.03.81-.32.16-.29-.31-.56-.15-.85.16-.29.64-.03.8-.32.16-.29-.31-.55-.15-.85.16-.29.64-.03.81-.32.16-.29-.31-.56-.15-.85.16-.29.64-.03.8-.32.16-.29-.31-.56-.15-.85.16-.29.64-.03.8-.32.16-.29-.32-.06-.65-.12-.33-.06-.24-.6-.57-.65-.33-.06-.43.48-.76.42-.33-.06-.24-.6-.57-.65-.33-.06-.42.48-.75.42-.33-.06-.24-.6-.57-.65s-.42.48-.75.42-.24-.6-.57-.65c-.33-.06-.43.48-.76.42-.33-.06-.24-.6-.57-.65s-.43.48-.76.42c-.33-.06-.24-.6-.57-.65-.33-.06-.42.48-.75.42-.33-.06-.24-.59-.57-.65s-.42.48-.75.42c-.33-.06-.24-.6-.57-.65-.33-.06-.43.48-.76.42s-.24-.6-.57-.65c-.33-.06-.43.48-.76.42-.33-.06-.24-.6-.57-.65-.33-.06-1.04-.05-.71-.12.33-.06.43.47.76.41.33-.06.23-.6.56-.66.33-.06.43.47.76.41.33-.06.23-.6.56-.66.33-.06.43.47.76.41.33-.06.23-.6.56-.66.33-.06.43.47.76.41.33-.06.23-.6.56-.66.33-.06.43.47.76.41.33-.06.23-.6.56-.66.33-.06.43.47.76.41.33-.06.23-.6.56-.66.33-.06.43.47.76.41.33-.06.23-.6.56-.66.33-.06.43.47.76.41.33-.06.23-.6.56-.66.33-.06.43.47.76.41.33-.06.23-.6.56-.66.33-.06.43.47.76.41.33-.06.23-.6.56-.66.33-.06.43.47.76.41.33-.06.23-.6.56-.66.33-.06.19-.13.01-.41-.18-.29-.64,0-.81-.28-.18-.28.29-.58.11-.86-.18-.28-.64,0-.81-.28-.18-.29.29-.58.11-.86-.18-.29-.64,0-.81-.28-.18-.28.29-.58.11-.86-.18-.28-.64,0-.81-.28-.18-.28.29-.58.11-.86-.18-.29-.64,0-.81-.28-.18-.29.29-.58.11-.86-.18-.28-.64,0-.81-.28-.18-.28.29-.58.11-.86-.18-.29-.64,0-.81-.28-.18-.28.29-.58.11-.86-.18-.28-.64,0-.81-.28-.18-.29.29-.58.11-.86-.18-.29-.64,0-.81-.28-.18-.28.29-.58.11-.86-.18-.29-.64,0-.81-.28-.18-.29.16.08.43.27.27.2.59-.24.86-.04.27.2-.05.64.22.84.27.2.59-.24.86-.04.27.2-.05.64.22.84.27.2.59-.24.86-.04.27.2-.05.64.22.84.27.2.59-.24.86-.04.27.2-.05.64.22.84.27.2.59-.24.86-.04s-.05.64.22.84c.27.2.59-.24.86-.04.27.2-.05.64.22.84.27.2.59-.24.86-.04.27.2-.05.64.22.84.27.2.59-.24.86-.04.27.2-.05.64.22.84.27.2.33.39.43.06s.62-.17.71-.49c.09-.32-.43-.47-.33-.79.09-.32.62-.17.71-.49.09-.32-.43-.47-.34-.79.09-.32.62-.17.71-.49s-.43-.47-.34-.79.62-.17.71-.49c.09-.32-.43-.47-.34-.79.09-.32.62-.17.71-.49s-.43-.47-.34-.79.62-.17.71-.49-.43-.47-.33-.79c.09-.32.62-.17.71-.49.09-.32-.43-.47-.33-.79.09-.32.62-.17.71-.49.09-.32-.43-.47-.34-.79.09-.32.62-.17.71-.49.09-.32.1-1.11.19-.79"/>
      <path class="cls-3" d="m123.86,14.38c-1.23,2.31.42,1.02,1.14,3.53.72,2.51-1.55,2.41.76,3.64,2.31,1.23-1.67,2.94.83,3.7,2.5.76,2.99,1.4,3.08-1.21.09-2.61,3.05.75,3.28-1.85.23-2.6,2.81-3.69,2-1.21-.81,2.49.41,2.21-1.94,3.35-2.35,1.15.46,3.21-2.15,3.12-2.61-.09-2.46.77-1.48,3.19.98,2.42,2.9-1.64,3.7.85.81,2.49,1.98-1.07,3.79.8,1.81,1.88,1.06.78,3.67.69,2.61-.09.54,1.72-2.03,1.22-2.56-.5-1.67-1.03-3.75.55-2.09,1.57-2.71-2.18-3.9.15-1.19,2.33-3.55,1.98-.94,1.89,2.61-.09-.58,2.98,2.02,3.25,2.6.27.19,1.33,1.94,3.27,1.75,1.94,4.97,3.14,2.38,2.78-2.59-.36-1.64-.29-3.06-2.48-1.42-2.19-3.22.39-3.17-2.22.05-2.61-3.28.44-3.14-2.17.14-2.61,1.04,1.56-1.43,2.41-2.47.85,1.25,1.89-.84,3.46-2.09,1.57-.27,1.29-.63,3.87-.36,2.59-2.39,1.52-.85,3.64,1.54,2.11.94-1.78-1.27-3.17-2.22-1.39,1.73-3.04-.74-3.89-2.47-.85,1.53-2.41-.66-3.83-2.19-1.42.12-3.2-1.91-1.56-2.03,1.64-.36,2.44-2.96,2.13s-.49,3.96-2.98,3.15c-2.49-.81-3.8,4.69-2.46,2.45,1.35-2.24-1.05-2.86,1.46-3.58,2.51-.72.36-1.39,1.67-3.65,1.31-2.26,2.61-.71,1.89-3.22-.72-2.51,1.81-4.07,0-2.19-1.82,1.88-1.94-2.69-3.79-.85-1.85,1.85-1.3-1.55-3.88-1.09-2.57.45-1.83,1.38-3.86-.26s.74-2.61,2.59-.76c1.85,1.85,1.6-2.41,3.48-.59,1.88,1.82,1.31-1.4,3.87-.86,2.56.54,1.65.69,3.74-.88,2.09-1.57-.45-.88-2.09-2.91-1.65-2.03.7-2.77-1.89-3.13-2.59-.36.76-3.64-1.85-3.64s-1.85.42.61-.48c2.45-.89.49,2.59,3.08,2.91,2.59.32,1.64-.15,3.1,2.02,1.46,2.17,1.72,1.64,2.78-.75,1.06-2.39-1.54-2.64.83-3.75,2.37-1.1-1.63-3.15.89-3.87,2.51-.72,2.3-4.3,1.08-2"/>
      <path class="cls-2" d="m122.47,53.33h-.02c-.44-.01-.5-.43-.54-.64,0-.02,0-.05-.01-.08-.03-.03-.05-.06-.08-.09-.19-.07-.54-.21-.63-.61-.08-.32.07-.57.2-.72-.19-.08-.43-.24-.51-.56-.08-.33.07-.57.2-.73-.19-.08-.43-.24-.51-.57-.08-.33.07-.57.2-.72-.19-.08-.43-.24-.51-.56-.07-.33.07-.57.2-.73-.19-.08-.43-.24-.51-.57-.08-.33.07-.57.2-.72-.19-.08-.43-.24-.51-.56-.08-.33.07-.57.2-.73-.19-.08-.43-.24-.51-.57-.08-.33.07-.57.2-.72-.19-.08-.43-.24-.51-.57-.08-.33.07-.57.2-.72-.19-.08-.43-.24-.51-.57-.07-.33.07-.57.2-.73-.15-.06-.32-.17-.43-.36-.06,0-.12-.02-.17-.03.01.21-.02.49-.28.7-.26.22-.54.2-.74.15.01.21-.02.49-.28.7-.26.22-.54.2-.74.15.01.21-.02.49-.28.7-.26.22-.54.2-.74.15.01.21-.02.49-.28.7-.26.22-.54.2-.74.15.01.21-.02.49-.27.7-.26.22-.54.19-.74.15.01.21-.02.49-.28.7-.26.21-.54.2-.74.15.01.21-.02.49-.27.7-.26.22-.54.2-.74.15.01.21-.02.49-.28.7-.23.19-.48.2-.67.16-.02.05-.04.11-.07.17,0,0,0,0,0,.01-.02.17-.09.36-.27.51-.37.31-.64.17-.76.06-.34-.3-.09-.67.01-.83h0c-.01-.09-.02-.21,0-.33-.08-.19-.15-.46,0-.75.16-.3.44-.38.64-.4-.08-.19-.15-.46,0-.75.16-.3.44-.38.64-.41-.08-.19-.15-.46,0-.75.16-.3.44-.38.64-.41-.08-.19-.15-.46,0-.75.16-.3.43-.38.64-.4-.08-.19-.15-.46,0-.75.16-.3.44-.38.64-.41-.08-.19-.15-.46,0-.75.16-.3.44-.38.64-.4-.08-.19-.15-.46,0-.75.16-.3.43-.38.64-.4-.08-.19-.15-.46,0-.75.16-.3.43-.38.64-.4-.08-.19-.15-.46,0-.75.16-.3.44-.38.64-.4-.08-.19-.15-.46,0-.75,0,0,0-.01.01-.02-.04-.05-.07-.1-.09-.15-.15.14-.39.3-.71.24-.33-.06-.5-.29-.59-.47-.15.14-.38.3-.71.24-.33-.06-.5-.29-.59-.47-.15.14-.38.3-.71.24-.33-.06-.5-.29-.59-.47-.15.14-.39.3-.72.24-.33-.06-.5-.29-.59-.47-.15.14-.38.3-.71.24-.33-.06-.5-.29-.59-.47-.15.14-.38.3-.72.24-.33-.06-.5-.29-.59-.47-.15.14-.38.3-.71.24-.33-.06-.5-.29-.59-.47-.15.14-.38.3-.71.24-.33-.06-.5-.29-.59-.47-.15.14-.38.3-.72.24-.26-.05-.42-.19-.52-.34-.32-.02-.52-.23-.64-.36-.28-.03-.58-.12-.61-.5l-.03-.44.52-.11c.2-.04.37,0,.5.07.1,0,.21.02.3.03.1-.15.25-.3.51-.35.33-.06.57.09.72.23.09-.19.25-.41.58-.48.34-.06.57.09.72.23.09-.19.25-.41.58-.48.33-.06.57.09.72.23.09-.19.25-.41.58-.48.33-.06.57.09.72.23.09-.19.25-.41.58-.48.33-.07.57.09.72.23.09-.19.25-.41.58-.48.33-.06.57.09.72.23.09-.19.25-.41.58-.48.33-.07.57.09.72.23.09-.19.25-.41.58-.48.33-.06.57.09.72.23.09-.19.25-.41.58-.48.33-.06.57.09.72.23.09-.19.25-.41.58-.48.12-.02.24-.02.34,0-.06-.05-.11-.11-.15-.18-.18-.29-.12-.56-.04-.76-.21-.02-.47-.09-.65-.37-.18-.29-.12-.57-.04-.76-.21-.02-.48-.09-.65-.37-.18-.29-.12-.56-.04-.76-.21-.02-.48-.09-.65-.37-.18-.29-.12-.56-.04-.76-.21-.02-.48-.09-.65-.37-.18-.29-.12-.57-.04-.76-.21-.02-.48-.09-.65-.37-.18-.29-.12-.57-.04-.76-.21-.02-.48-.09-.65-.37-.18-.29-.12-.57-.04-.76-.21-.02-.48-.09-.65-.37s-.12-.56-.04-.76c-.21-.02-.48-.09-.65-.37-.15-.25-.13-.49-.07-.67-.02-.01-.05-.03-.07-.04-.03-.02-.06-.05-.1-.07-.16-.04-.33-.14-.46-.34-.26-.42-.05-.67.05-.75.32-.28.64-.03.82.12.11,0,.27,0,.43.07.19-.05.45-.07.7.11.27.2.32.48.32.69.2-.06.47-.1.74.1.27.2.32.48.32.69.2-.06.48-.1.75.1.27.2.32.48.32.69.2-.06.47-.1.74.1.28.2.32.48.32.69.2-.06.47-.1.74.1.27.2.32.48.32.69.2-.06.48-.1.75.1.27.2.32.48.32.69.2-.06.47-.1.74.1.27.2.32.48.32.69.2-.06.47-.1.75.1.09.07.16.14.21.22-.02-.1-.01-.21.02-.34.09-.33.34-.47.53-.54-.13-.16-.25-.41-.16-.73.09-.32.34-.47.53-.54-.13-.16-.25-.41-.16-.74.09-.32.34-.47.53-.54-.12-.16-.25-.41-.16-.73.09-.33.34-.47.53-.54-.12-.16-.25-.41-.16-.73.09-.33.34-.47.53-.54-.12-.16-.25-.41-.16-.73.09-.33.34-.47.53-.54-.12-.16-.25-.41-.16-.74.09-.32.34-.47.53-.54-.12-.16-.25-.41-.16-.73.09-.32.33-.46.52-.53.03-.22.16-.38.26-.49.04-.31.12-.65.52-.68l.42-.03.14.48h0c.07.27-.01.49-.12.65,0,.04,0,.07-.01.11.18.08.39.23.47.52.09.33-.05.57-.18.74.19.08.43.22.52.55.09.32-.05.57-.18.73.19.08.43.22.52.55.09.32-.05.57-.18.73.19.08.43.22.52.55.09.33-.05.57-.18.73.19.08.43.22.52.55.09.33-.05.57-.18.74.19.08.43.22.52.55.09.32-.05.57-.18.73.19.08.43.22.52.55.09.33-.05.57-.18.73.19.08.43.22.52.55.09.33-.05.57-.18.74.03.01.06.03.09.04.05-.16.14-.33.34-.45.29-.17.57-.11.76-.03.02-.21.1-.48.38-.65.29-.17.56-.11.76-.03.02-.21.09-.48.38-.65.29-.18.57-.11.76-.03.02-.21.09-.48.38-.65.29-.17.56-.11.76-.03.02-.21.09-.48.38-.65.29-.17.57-.11.76-.03.02-.21.09-.48.38-.65.29-.17.56-.11.76-.03.02-.21.09-.48.38-.65.25-.15.48-.12.67-.06.22-.16.48-.16.64-.15.24-.18.52-.32.8-.06l.31.3-.29.43c-.13.19-.3.27-.46.31-.06.05-.12.09-.18.13.04.19.05.42-.11.65-.19.27-.47.33-.67.34.07.2.11.48-.08.75-.19.27-.47.33-.67.34.07.2.11.48-.08.75-.19.27-.47.33-.67.34.07.2.11.48-.08.75-.19.27-.47.33-.67.34.07.2.11.48-.08.75-.19.27-.47.33-.67.34.07.2.11.48-.08.75-.19.27-.47.33-.67.34.07.2.11.48-.08.75-.19.27-.47.33-.67.34.07.2.11.48-.08.75-.06.09-.14.16-.22.21.1-.02.22-.02.34.01.32.09.47.32.55.52.16-.13.41-.27.74-.18.32.09.47.32.55.52.16-.13.41-.27.74-.18.32.09.47.32.55.52.16-.13.41-.27.74-.18.32.09.47.32.54.51.16-.13.41-.27.74-.18.32.09.47.33.55.52.16-.13.41-.27.74-.18.32.09.47.32.55.52.16-.13.41-.27.74-.18.32.09.47.32.55.52.16-.13.41-.27.74-.18.32.09.47.32.55.52.16-.13.41-.27.74-.18.43.12.55.5.6.68,0,.01,0,.02,0,.03h.02c.16.04.57.15.54.58-.03.44-.45.48-.66.5-.34.04-.56-.14-.7-.29-.11.18-.29.39-.62.42-.34.04-.56-.14-.7-.29-.11.18-.29.39-.62.43-.35.04-.56-.14-.7-.29-.11.18-.29.39-.62.42-.32.04-.56-.14-.7-.29-.11.18-.29.39-.62.42-.33.04-.56-.14-.7-.29-.11.18-.29.39-.62.42-.33.03-.56-.14-.7-.29-.11.18-.29.39-.62.42-.33.04-.56-.14-.7-.29-.11.18-.29.39-.62.42-.33.03-.56-.14-.7-.29-.1.18-.29.39-.62.43-.27.02-.46-.08-.6-.2.14.26.09.5.03.68.21,0,.48.07.67.35.19.28.14.55.07.75.21,0,.48.07.67.35.19.28.14.55.07.75.21,0,.48.07.67.35.19.28.14.56.07.75.21,0,.48.07.67.35.19.28.14.56.07.75.21,0,.48.07.67.35.19.28.14.55.07.75.21,0,.48.07.67.35.19.28.14.55.07.75.21,0,.48.07.67.35.19.28.14.56.07.75.21,0,.48.07.67.35.19.28.14.56.07.75.21,0,.48.07.67.35l.12.18c.1.14.36.5.04.81-.19.19-.42.2-.69.03-.01,0-.03.01-.04.02-.18.07-.56.22-.91-.05-.27-.2-.31-.48-.31-.68-.2.06-.48.1-.75-.11-.27-.2-.31-.48-.31-.68-.2.06-.48.1-.75-.11-.27-.2-.31-.48-.31-.68-.2.06-.48.1-.75-.11-.27-.2-.31-.48-.31-.68-.2.06-.48.1-.75-.11-.27-.2-.31-.48-.31-.68-.2.06-.48.1-.75-.11-.27-.2-.31-.48-.31-.68-.2.06-.48.09-.75-.11-.27-.2-.31-.48-.31-.68-.2.06-.48.09-.75-.11-.27-.2-.31-.48-.31-.68-.2.06-.48.1-.75-.11-.05-.04-.1-.09-.14-.13,0,.04,0,.07-.02.11-.07.33-.31.49-.5.58.14.16.28.39.21.72-.07.33-.31.49-.5.57.14.15.28.39.21.72-.07.33-.31.49-.5.58.14.16.28.39.21.72-.07.33-.31.49-.5.57.13.15.28.39.21.72-.07.33-.31.49-.5.57.14.15.28.39.21.72-.07.33-.31.49-.5.57.14.16.28.39.21.72-.07.33-.31.49-.5.57.14.16.28.39.21.72-.07.33-.3.49-.5.57.14.16.28.39.21.72-.07.33-.31.49-.5.57.14.15.28.39.21.72-.07.32-.29.48-.48.57,0,.01.01.03.02.05.12.15.24.38.18.68-.1.45-.37.52-.54.52Zm-.21-3.61c.02.14,0,.27-.05.37.07-.05.14-.09.21-.12-.06-.07-.12-.15-.16-.25Zm-.52-.65c.16.07.36.19.46.42,0-.08,0-.16.01-.24.07-.33.31-.49.5-.57-.14-.15-.28-.39-.21-.72.07-.33.31-.49.5-.58-.14-.16-.28-.39-.21-.72.07-.33.31-.49.5-.58-.14-.15-.28-.39-.21-.72.07-.33.31-.49.5-.57-.14-.15-.28-.39-.21-.72.07-.33.31-.49.5-.58-.14-.15-.28-.39-.21-.72.07-.33.31-.49.5-.58-.14-.15-.28-.39-.21-.72.07-.33.31-.49.5-.58-.14-.15-.28-.39-.21-.72.07-.33.31-.49.5-.57-.14-.15-.28-.39-.21-.72.01-.06.02-.11.02-.16.02-.16.06-.46.36-.59.24-.1.45,0,.58.07.01,0,.02,0,.04-.01.18-.07.56-.22.92.05.27.2.31.48.31.68.2-.06.48-.1.75.11.27.2.31.48.31.68.2-.06.48-.09.75.11.27.2.31.48.31.68.2-.06.48-.09.75.11.27.2.31.48.31.68.2-.06.48-.1.75.11.27.2.31.48.31.68.2-.06.48-.1.75.11.27.2.31.48.31.68.18-.05.44-.09.69.06,0-.13.02-.25.06-.35-.21,0-.48-.07-.67-.35-.19-.28-.14-.56-.07-.75-.21,0-.48-.07-.67-.35-.19-.28-.14-.55-.07-.75-.21,0-.48-.07-.67-.35s-.14-.56-.07-.75c-.21,0-.48-.07-.67-.35-.19-.28-.14-.56-.07-.75-.21,0-.48-.07-.67-.35-.19-.28-.14-.55-.07-.75-.21,0-.48-.07-.67-.35-.19-.28-.14-.55-.07-.75-.21,0-.48-.07-.67-.35-.2-.3-.15-.53-.06-.68.19-.31.52-.28.71-.26.04,0,.08,0,.11.01,0,0,0-.01,0-.02.08-.17.26-.54.7-.58.33-.04.56.14.7.29.11-.18.29-.39.62-.42.34-.04.56.14.7.29.11-.18.29-.39.62-.42.32-.04.56.14.7.29.11-.18.29-.39.62-.42.34-.04.56.14.7.29.11-.18.29-.39.62-.42.34-.03.56.14.7.29.11-.18.29-.39.62-.42.35-.03.56.14.7.29.08-.13.19-.28.38-.36-.12.04-.26.05-.43,0-.32-.09-.47-.32-.55-.52-.16.13-.41.27-.74.18-.32-.09-.47-.32-.55-.52-.16.13-.41.27-.74.18-.32-.09-.47-.32-.55-.52-.16.13-.41.27-.74.18-.32-.09-.47-.32-.55-.52-.16.13-.41.27-.74.18-.32-.09-.47-.32-.55-.52-.16.13-.41.27-.74.18-.32-.09-.47-.32-.55-.52-.16.13-.41.27-.74.18-.43-.12-.55-.5-.6-.68,0-.01,0-.03-.01-.04-.14-.05-.33-.15-.41-.39-.1-.31.09-.53.19-.65.03-.04.07-.08.1-.13.19-.27.47-.33.67-.34-.07-.2-.11-.48.08-.75.19-.28.47-.33.67-.34-.07-.2-.11-.48.08-.75.19-.27.47-.33.67-.34-.07-.2-.11-.48.08-.75.19-.27.47-.33.67-.34-.07-.2-.11-.48.08-.76.19-.27.47-.33.67-.34-.07-.2-.11-.48.08-.76.19-.27.46-.33.67-.34-.06-.17-.1-.4.01-.63-.23.07-.43.01-.58-.05-.02.21-.09.48-.38.65-.29.17-.56.11-.76.03-.02.21-.09.48-.38.65-.29.17-.57.11-.76.03-.02.21-.1.48-.38.65-.29.17-.57.11-.76.03-.02.21-.09.48-.38.65-.29.18-.57.11-.76.03-.02.21-.09.48-.38.65-.2.12-.43.26-.71.14-.23-.09-.32-.29-.38-.48-.01,0-.02,0-.03,0-.18-.06-.57-.17-.69-.6-.09-.33.05-.57.18-.74-.19-.08-.43-.22-.52-.55-.09-.33.05-.57.18-.73-.19-.08-.43-.22-.52-.55-.09-.32.05-.57.18-.73-.19-.08-.43-.22-.52-.55-.09-.32.05-.57.18-.73-.19-.08-.43-.22-.52-.55-.09-.32.05-.57.18-.73-.19-.08-.43-.22-.52-.55-.09-.33.05-.57.18-.73-.19-.08-.43-.22-.52-.55-.09-.33.05-.57.18-.73-.1-.04-.22-.1-.32-.2-.1.09-.22.15-.32.19.12.16.25.41.16.73-.09.33-.34.47-.53.54.12.16.25.41.16.73-.09.33-.34.47-.53.54.13.16.25.41.16.73-.09.33-.34.47-.53.54.12.16.25.41.16.74-.09.32-.34.47-.53.54.12.16.25.41.16.73-.09.32-.34.47-.53.54.12.16.25.41.16.73-.09.33-.34.47-.53.54.12.16.25.41.16.73-.12.43-.51.54-.7.59-.01,0-.03,0-.04.01-.05.14-.16.33-.4.4-.31.09-.52-.1-.64-.2-.03-.03-.08-.07-.13-.1-.27-.2-.32-.48-.32-.69-.2.06-.47.1-.74-.1-.27-.2-.32-.48-.32-.69-.2.06-.47.1-.74-.1-.27-.2-.32-.48-.32-.69-.2.06-.48.1-.75-.1-.27-.2-.32-.48-.32-.69-.2.06-.47.1-.75-.1-.27-.2-.32-.48-.32-.69-.2.06-.47.1-.74-.1-.27-.2-.32-.48-.32-.69-.09.03-.2.05-.32.05.1.24.04.47-.02.63.21.02.48.09.65.37.18.29.12.56.04.76.21.02.48.09.65.37.18.29.12.56.04.76.21.02.48.09.65.37.18.29.12.56.04.76.21.02.48.09.65.37.18.29.12.56.04.76.21.02.48.09.65.37.18.29.12.56.04.76.21.02.48.09.65.37.18.29.12.57.04.76.21.02.48.09.65.37l.08.12c.09.13.26.37.14.66-.09.23-.3.32-.45.36,0,.01,0,.02-.01.04-.07.18-.21.56-.65.64-.33.07-.57-.09-.72-.23-.09.19-.25.41-.58.48-.33.06-.57-.09-.72-.23-.09.19-.25.41-.58.48-.33.06-.57-.09-.72-.23-.09.19-.25.41-.58.48-.33.06-.57-.09-.72-.23-.09.19-.25.41-.58.48-.33.06-.57-.09-.72-.23-.09.19-.25.41-.58.48-.33.06-.57-.09-.72-.23-.09.19-.25.41-.58.48-.33.06-.57-.09-.72-.23-.09.19-.25.41-.58.48-.33.06-.57-.09-.72-.23-.05.11-.13.24-.26.34.1.09.17.2.21.29.15-.14.39-.3.71-.24.33.06.5.29.59.47.15-.14.38-.3.71-.24.33.06.5.29.59.47.15-.14.38-.3.71-.24.33.06.5.29.59.47.15-.14.38-.3.71-.24.33.06.5.29.59.47.15-.14.38-.3.72-.24.33.06.5.29.59.47.15-.14.38-.3.71-.24.33.06.5.29.59.47.15-.14.38-.3.72-.24.44.08.59.45.66.63,0,0,0,0,0,.01.04,0,.09-.01.13-.02.21-.03.55-.07.75.23.07.11.17.34,0,.65-.16.3-.44.38-.64.4.08.19.15.46,0,.75-.16.3-.44.38-.64.4.08.19.15.46,0,.75-.17.3-.44.38-.64.41.08.19.15.46,0,.75-.17.3-.44.38-.64.41.08.19.15.46,0,.75-.16.3-.44.38-.64.4.08.19.15.46,0,.75-.16.3-.44.38-.64.4.08.19.15.46,0,.75-.17.3-.44.38-.64.41.08.19.15.46,0,.75-.17.3-.44.38-.64.41.03.06.05.12.07.19.23-.13.46-.12.63-.07-.01-.21.02-.49.27-.7.26-.22.54-.2.74-.15-.01-.21.02-.49.28-.7.26-.22.54-.2.74-.15-.01-.21.02-.49.28-.7.26-.22.54-.2.74-.15-.01-.21.02-.49.28-.7.26-.22.54-.2.74-.15-.01-.21.02-.49.28-.7.26-.22.54-.2.74-.15-.01-.21.02-.49.28-.7.34-.29.72-.16.91-.1,0,0,0,0,.01,0,.04-.05.08-.12.11-.16.14-.23.33-.54.72-.47.11.02.38.1.46.47.08.33-.07.57-.2.72.19.08.43.24.51.57.08.33-.07.57-.2.73.19.08.43.24.51.57.07.33-.07.57-.2.72.19.08.43.24.51.57.08.33-.07.57-.2.72.19.08.43.24.51.57.07.33-.07.57-.2.72.19.08.43.24.51.57.08.33-.07.57-.2.72.19.08.43.24.51.57.08.33-.07.57-.2.72.19.08.43.24.51.57.07.33-.07.57-.2.72Zm11.37-5.49s0,.07,0,.1c.04-.01.09-.02.14-.03-.05-.02-.1-.04-.14-.06Zm-7.41-4.39s0,0,0,0h0s0,0,0,0Zm11.42-5.95c-.06.05-.14.1-.23.14.05-.02.1-.03.16-.03.04,0,.09,0,.12,0-.02-.04-.04-.07-.05-.11Zm-31.81-.24s.01.02.02.03c.03-.03.07-.06.11-.09-.02-.02-.04-.04-.06-.05-.02.04-.04.08-.07.12Zm23.65-2.79s.02.05.03.07c.04-.03.08-.06.13-.09-.06.01-.11.02-.16.02Zm-12.73-.29s.05.04.07.06c0-.01.01-.03.02-.04-.03,0-.06-.01-.1-.02Zm9.55-3.94h0s0,0,0,0Zm-5.98-.07h0s0,0,0,0Zm-.52-.94c0,.05.01.11.02.16.02-.01.05-.02.07-.03-.03-.04-.06-.08-.09-.13Zm13.69-2.58c0,.09-.03.2-.08.31.09-.03.18-.04.26-.04-.02-.07-.04-.14-.05-.22-.05-.01-.09-.03-.13-.05Zm-21.08-1.34s.02,0,.03,0c0-.01,0-.03-.01-.04,0,.01,0,.02-.01.04Z"/>
      <path class="cls-1" d="m117.7,32.93c.19-10.99,14.18-10.99,13.99,0-.19,10.99-14.18,10.99-13.99,0"/>
      <path class="cls-4" d="m15.8,76.81c-.17-.84-.47-1.5-.9-2-.43-.5-1.04-.89-1.84-1.18-.8-.3-1.62-.45-2.48-.45-.97,0-1.76.2-2.39.6-.63.39-.95.84-.95,1.34,0,.39.2.75.6,1.07.58.46,1.94,1.07,4.11,1.85,1.76.64,2.96,1.13,3.6,1.47.65.33,1.15.73,1.49,1.2.35.46.53.93.53,1.43,0,.96-.56,1.78-1.67,2.48-1.1.7-2.53,1.04-4.27,1.04-.55,0-1.06-.03-1.55-.08-.29-.04-.89-.15-1.8-.35-.9-.2-1.47-.29-1.71-.29s-.42.05-.56.14c-.13.09-.23.29-.29.59h-.51v-2.17c-.02-.62-.42-1.39-1.21-2.3-.79-.92-2.12-1.92-4-3.01,2.03,1.18,3.29,1.94,3.76,2.28.47.34.81.6,1,.77.2.16.42.35.64.58.23.23.4.44.51.61.11.17.37.48.78.93.41.45,1.03.82,1.86,1.11.85.3,1.77.45,2.77.45,1.16,0,2.07-.2,2.74-.61.68-.41,1.02-.89,1.02-1.45,0-.32-.13-.63-.39-.95-.25-.32-.64-.61-1.18-.89l-.28-.13c.06-.18.06-.35,0-.51l-2.7-1.14-2.64-1.09c-1-.41-1.66-.62-1.98-.63l-.36-.35c-.35-.43-.53-.9-.53-1.42,0-.91.52-1.69,1.56-2.35,1.04-.66,2.36-.99,3.97-.99,1,0,2.06.17,3.19.5.52.16.89.24,1.1.24.24,0,.44-.05.58-.14.16-.1.4-.38.72-.82-.42.37-.53,1.91-.35,4.61"/>
      <path class="cls-4" d="m24.27,73.51l-.03,4.63h4.15c1.08,0,1.8-.11,2.16-.33.48-.29.75-.8.81-1.53h.51v4.48h-.51c-.13-.63-.26-1.03-.39-1.21-.17-.22-.44-.39-.82-.51-.38-.13-.97-.2-1.75-.2h-4.15v4.25c0,.57.04.91.11,1.04.07.12.2.22.39.29.19.07.54.11,1.06.11h3.2c1.07,0,1.84-.05,2.32-.15s.95-.3,1.39-.6c.58-.4,1.16-.99,1.77-1.78h.56l-1.63,3.23h-2.1l-.1-.14-.52-.12-.46-.02h-5.41s-1.53-.01-1.53-.01h-.85s-1.21.04-1.21.04l-.77.11-.46.03-1.31.1.86-.17c.43-.11.84-.24,1.24-.39.3-.1.5-.26.6-.46.11-.2.17-.62.17-1.24v-8.37c.06-.53-.05-.92-.33-1.17-.35-.31-.87-.51-1.56-.63l-.81-.07-6.17-.38h9.4l.24-.37h5.75l.22.37h5.11l.21,2.83h-.54c-.19-.68-.41-1.14-.65-1.39-.23-.26-.58-.46-1.04-.59-.37-.1-1.03-.15-1.96-.15h-1.86l-.36.24-.31.22h-2.62Z"/>
      <path class="cls-4" d="m48.73,81.02l-.43-.54h-3.45s-.54.54-.54.54h-2.88l-1.28,1.99c-.32.48-.47.85-.47,1.09,0,.19.1.35.31.46.2.11.74.19,1.6.24-2.14-.03-3.49.08-4.04.32h-1.63s0-.22,0-.22c.79-.09,1.3-.21,1.53-.36.47-.3,1-.9,1.57-1.81l6.64-10.36h.49l6.57,10.47c.53.85,1.01,1.39,1.43,1.64.44.25,1.04.39,1.81.42v.35h-7.45v-.35c.75-.02,1.26-.1,1.52-.24.27-.15.4-.32.4-.53,0-.28-.19-.71-.56-1.3l-1.14-1.81Zm-.67-1.2l-2.92-4.93-3.16,4.93h6.08Z"/>
      <path class="cls-4" d="m62.04,73.14v5.02h3.44c.79,0,1.36-.12,1.73-.35.37-.23.62-.7.74-1.41h.51v4.33h-.51c0-.49-.11-.85-.29-1.08-.18-.24-.43-.42-.75-.53-.32-.12-.79-.18-1.42-.18h-3.44v4.04c0,.64.06,1.06.18,1.27.09.17.26.35.5.56.3.25.69.39,1.17.43h-7.22v-.35h.67c.78,0,1.34-.15,1.7-.46.22-.2.33-.69.33-1.45v-4.15l.35-.15v-4.82c-.23-.09-.41-.24-.53-.45-.09-.16-.28-.29-.57-.4-.4-.16-.83-.24-1.28-.24h-.67v-.33h2.96l.02-.99.35.61.36.35.77.03h9.59l.29,3.34-.36-1.32c-.14-.42-.39-.73-.75-.93-.36-.2-.82-.32-1.38-.35-.56-.03-1.33-.04-2.31-.04h-4.16Z"/>
      <path class="cls-4" d="m83.9,72.75v-2.19s1.25,1.48,1.25,1.48c.67.06,1.9.72,3.69,1.99,1.8,1.27,2.7,2.87,2.7,4.79s-.9,3.6-2.71,4.9c-1.81,1.3-4,1.95-6.57,1.95-2.6,0-4.78-.63-6.56-1.89-1.76-1.27-2.64-2.91-2.64-4.93s.98-3.78,2.94-5.16c1.02-.68,1.95-1.12,2.8-1.34l.33.39,4.77.02Zm-1.68.26c-1.69,0-3.04.41-4.06,1.24-1.27,1.02-1.91,2.52-1.91,4.49s.66,3.59,1.98,4.68c1.01.84,2.35,1.25,4.01,1.25,1.77,0,3.23-.45,4.38-1.36,1.16-.91,1.74-2.34,1.74-4.3,0-2.12-.64-3.71-1.91-4.75-1.02-.84-2.43-1.25-4.23-1.25"/>
      <path class="cls-4" d="m104.49,72.75v-2.19s1.25,1.48,1.25,1.48c.67.06,1.9.72,3.69,1.99,1.8,1.27,2.7,2.87,2.7,4.79s-.9,3.6-2.71,4.9c-1.81,1.3-4,1.95-6.57,1.95-2.6,0-4.78-.63-6.56-1.89-1.76-1.27-2.64-2.91-2.64-4.93s.98-3.78,2.94-5.16c1.02-.68,1.95-1.12,2.8-1.34l.33.39,4.77.02Zm-1.68.26c-1.69,0-3.04.41-4.06,1.24-1.27,1.02-1.91,2.52-1.91,4.49s.66,3.59,1.98,4.68c1.01.84,2.35,1.25,4.01,1.25,1.77,0,3.23-.45,4.38-1.36,1.16-.91,1.74-2.34,1.74-4.3,0-2.12-.64-3.71-1.91-4.75-1.02-.84-2.43-1.25-4.23-1.25"/>
      <path class="cls-4" d="m113.72,85.23h-3.31l4.06-.24c.77-.07,1.32-.29,1.66-.64.2-.2.31-.66.31-1.38v-8.24c0-.79-.13-1.29-.39-1.49-.36-.28-.9-.42-1.61-.42h-.71v-.33h3.8v-1.31s1.45,1.31,1.45,1.31h2.44c2.82,0,4.96.22,6.43.65,1.48.43,2.66,1.15,3.55,2.16.9,1,1.35,2.17,1.35,3.49,0,1.77-.8,3.25-2.39,4.44-1.79,1.33-4.52,1.99-8.18,1.99h-8.43Zm5.39-1.22c1.18.17,2.17.25,2.96.25,2.15,0,3.94-.49,5.36-1.46,1.42-.97,2.13-2.29,2.13-3.94s-.71-3.02-2.13-3.98c-1.42-.97-3.24-1.45-5.47-1.45h-1.88l-.03,2.73-.95.57v7.28Z"/>
      <path class="cls-4" d="m150.64,84.89v.35h-8.09v-.35h.67c.78,0,1.35-.15,1.7-.46.22-.2.33-.69.33-1.45v-7.36c-.01-.54-.05-1-.11-1.38l-.15-.35c-.23-.17-.14-.31.26-.43l1.71-.7c.49-.18.8-.2.92-.08,1.77-.8,2.59-1.12,2.46-.96-.12.15-.37.34-.74.57-.54.37-.98.71-1.34,1.02-.23.2-.35.69-.35,1.45v8.23c0,.65.06,1.08.18,1.28.09.16.29.29.58.4.4.15.82.22,1.27.22h.68Zm-4.59-15.05l1.85.42c-.5-1.28-.75-2.37-.75-3.26s.19-2.11.56-3.63c.37-1.53-.2-3.59-1.73-6.17.64,2.43.86,4.07.65,4.91-.21.84-.45,1.58-.74,2.21-.85,1.54-1.07,3.33-.67,5.36l.82.15Z"/>
      <path class="cls-4" d="m163.89,76.81c-.17-.84-.47-1.5-.9-2-.43-.5-1.04-.89-1.84-1.18-.8-.3-1.62-.45-2.48-.45-.96,0-1.76.2-2.39.6-.63.39-.95.84-.95,1.34,0,.39.2.75.6,1.07.57.46,1.94,1.07,4.11,1.85,1.76.64,2.96,1.13,3.6,1.47.65.33,1.15.73,1.49,1.2.35.46.53.93.53,1.43,0,.96-.56,1.78-1.67,2.48-1.11.7-2.53,1.04-4.27,1.04-.55,0-1.06-.03-1.55-.08-.29-.04-.89-.15-1.8-.35-.9-.2-1.47-.29-1.71-.29s-.42.05-.56.14c-.13.09-.23.29-.29.59h-.51v-2.17c-.02-.62-.42-1.39-1.21-2.3-.79-.92-2.12-1.92-3.99-3.01,2.03,1.18,3.29,1.94,3.76,2.28.47.34.81.6,1,.77.2.16.42.35.64.58.23.23.4.44.51.61.11.17.37.48.78.93.41.45,1.03.82,1.86,1.11.84.3,1.77.45,2.77.45,1.16,0,2.07-.2,2.74-.61.68-.41,1.02-.89,1.02-1.45,0-.32-.13-.63-.39-.95-.25-.32-.64-.61-1.18-.89l-.28-.13c.06-.18.06-.35,0-.51l-2.7-1.14-2.64-1.09c-1-.41-1.66-.62-1.98-.63l-.36-.35c-.35-.43-.53-.9-.53-1.42,0-.91.52-1.69,1.56-2.35,1.04-.66,2.36-.99,3.97-.99,1,0,2.06.17,3.19.5.52.16.89.24,1.1.24.24,0,.44-.05.59-.14.16-.1.4-.38.72-.82-.42.37-.53,1.91-.35,4.61"/>
      <path class="cls-4" d="m182.72,81.7l.46.07-1.61,3.47h-1.98c-.16-.25-1.81-.37-4.97-.36h-1.56l-1.11.38h-5v-.36h.71c.8,0,1.37-.18,1.71-.53.19-.19.29-.66.29-1.39v-8.25c0-.8-.13-1.3-.39-1.5-.36-.28-.9-.42-1.61-.42h-.71v-.35l3.53.03c.74-.2,1.19-.59,1.34-1.17.16-.59.33-2.87.53-6.83v10.45s-.01,8.04-.01,8.04c0,.52.07.88.22,1.07.11.13.28.23.51.29.23.06.96.08,2.17.08h1.38c1.45,0,2.46-.07,3.05-.21s1.12-.39,1.6-.77c.48-.37.97-.95,1.45-1.74"/>
      <path class="cls-4" d="m196.84,81.02l-.43-.54h-3.45s-.54.54-.54.54h-2.88l-1.28,1.99c-.32.48-.47.85-.47,1.09,0,.19.1.35.31.46.2.11.74.19,1.6.24-2.14-.03-3.49.08-4.04.32h-1.63s0-.22,0-.22c.79-.09,1.3-.21,1.53-.36.47-.3,1-.9,1.57-1.81l6.64-10.36h.49l6.57,10.47c.53.85,1.01,1.39,1.43,1.64.44.25,1.04.39,1.81.42v.35h-7.45v-.35c.75-.02,1.26-.1,1.52-.24.27-.15.4-.32.4-.53,0-.28-.19-.71-.56-1.3l-1.14-1.81Zm-.67-1.2l-2.92-4.93-3.16,4.93h6.08Z"/>
      <path class="cls-4" d="m205.66,73.46c.82-.37,1.53-.63,2.13-.78l1.27-.26,11.54,9.69v-7.45c0-.8-.13-1.29-.39-1.49-.34-.27-.89-.4-1.63-.4h-.65v-.35h6.57v.35h-.67c-.8,0-1.36.17-1.7.5-.2.21-.31.67-.31,1.39v10.88h-.5l-12.44-10.4v7.95c0,.8.12,1.29.38,1.49.35.27.9.4,1.63.4.06,0,.03.12-.11.35h-5.79v-.35h.65c.81,0,1.38-.17,1.71-.5.2-.2.31-.67.31-1.39v-8.98c-2.22.29-3.84.65-4.86,1.09l-4.34,1.73c4-1.95,6.4-3.1,7.21-3.47"/>
      <path class="cls-4" d="m225.84,85.23h-3.31l4.06-.24c.77-.07,1.32-.29,1.66-.64.2-.2.31-.66.31-1.38v-8.24c0-.79-.13-1.29-.39-1.49-.36-.28-.9-.42-1.61-.42h-.71v-.33h3.8v-1.31s1.45,1.31,1.45,1.31h2.44c2.82,0,4.96.22,6.43.65,1.48.43,2.66,1.15,3.55,2.16.9,1,1.35,2.17,1.35,3.49,0,1.77-.8,3.25-2.39,4.44-1.79,1.33-4.52,1.99-8.18,1.99h-8.43Zm5.39-1.22c1.18.17,2.17.25,2.96.25,2.15,0,3.94-.49,5.36-1.46,1.42-.97,2.13-2.29,2.13-3.94s-.71-3.02-2.13-3.98c-1.42-.97-3.24-1.45-5.47-1.45h-1.88l-.03,2.73-.95.57v7.28Z"/>
      <path class="cls-2" d="m120.3,33.13c0-1.59,1.29-2.88,2.88-2.88s2.88,1.29,2.88,2.88-1.29,2.88-2.88,2.88-2.88-1.29-2.88-2.88"/>
      <path class="cls-3" d="m120.57,33.13c.08-4.52,5.83-4.52,5.76,0-.08,4.52-5.83,4.52-5.76,0"/>
      <path class="cls-2" d="m123.4,36.83s-.03,0-.05,0c-1.56-.03-3.12-1.31-3.07-3.7h0c.02-1.12.38-2.07,1.03-2.75.59-.61,1.44-.96,2.25-.93,1.56.03,3.12,1.31,3.07,3.7-.04,2.43-1.65,3.68-3.24,3.68Zm-2.01-3.68c-.03,1.75.97,2.55,1.97,2.56,1.03,0,2.12-.78,2.15-2.58.03-1.75-.97-2.55-1.97-2.56-.58-.02-1.05.2-1.43.6-.45.47-.7,1.15-.72,1.99h0Z"/>
      <path class="cls-2" d="m118.34,29.97c0-.44.36-.8.8-.8s.8.36.8.8-.36.8-.8.8-.8-.36-.8-.8"/>
      <path class="cls-2" d="m122.53,28.23c0-.44.36-.8.8-.8s.8.36.8.8-.36.8-.8.8-.8-.36-.8-.8"/>
      <path class="cls-2" d="m126.09,30.05c0-.44.36-.8.8-.8s.8.36.8.8-.36.8-.8.8-.8-.36-.8-.8"/>
      <path class="cls-2" d="m126.81,34.56c0-.44.36-.8.8-.8s.8.36.8.8-.36.8-.8.8-.8-.36-.8-.8"/>
      <path class="cls-2" d="m122.06,37.73c0-.44.36-.8.8-.8s.8.36.8.8-.36.8-.8.8-.8-.36-.8-.8"/>
      <path class="cls-2" d="m117.86,34.56c0-.44.36-.8.8-.8s.8.36.8.8-.36.8-.8.8-.8-.36-.8-.8"/>
      <path class="cls-2" d="m120.78.49c0-.1.07-.18.2-.25.14-.07.29-.1.47-.1.12,0,.23.17.31.52.09.34.3.99.63,1.95.34.96.58,1.51.72,1.64.09-.28.19-.59.3-.95.11-.35.2-.79.28-1.3.08-.52.12-1.13.12-1.83,0-.05.03-.09.08-.12.06-.03.12-.05.19-.05.08,0,.12.03.12.09,0,.73-.05,1.52-.16,2.35-.11.83-.23,1.49-.36,1.98-.13.49-.25.75-.37.79-.12.04-.23.06-.34.06-.08,0-.19-.12-.32-.37-.14-.25-.36-.78-.67-1.57-.31-.8-.49-1.34-.55-1.63-.08.21-.25.75-.49,1.61-.24.86-.39,1.44-.46,1.72-.07.29-.14.45-.21.49-.07.04-.14.06-.21.06-.06,0-.09-.02-.09-.05.05-.5.2-1.43.44-2.8.24-1.37.36-2.07.36-2.08v-.17Z"/>
      <path class="cls-2" d="m147.09,32.98c.26-.09.52-.16.79-.2.27-.05.54-.08.8-.08h.17s.1,0,.17.02c.07.01.11.04.12.1.01.06.02.13.02.23,0,.19-.02.29-.07.29l-.27-.03c-.05,0-.1,0-.15,0-.04,0-.11,0-.2,0h-.18c-.22,0-.45,0-.67.02-.22.02-.43.04-.62.07-.03.17-.08.48-.15.92-.07.44-.11.71-.12.81.27.04.49.07.66.09.17.02.37.02.58.02.33,0,.62-.03.87-.09.24-.06.42-.15.51-.25.09-.1.15-.16.18-.16.03,0,.06.02.09.05.03.03.05.07.05.11,0,.04-.01.07-.03.11-.02.04-.11.13-.28.27-.16.14-.42.26-.78.35-.36.09-.75.13-1.19.13l-.8-.02c-.1,0-.15-.04-.16-.11-.01-.08-.03-.12-.06-.12-.04,0-.06-.01-.06-.04l-.02-.58c0-.61.05-1.26.15-1.95.1-.7.18-1.18.25-1.45.07-.27.25-.47.54-.6.3-.14.69-.2,1.18-.2.21,0,.35,0,.43.02.08.01.17.03.27.05s.16.08.17.15c.02.07.03.15.03.25s0,.18-.02.25c-.02.07-.04.1-.07.1l-.06-.02c-.3-.11-.65-.17-1.06-.17-.27,0-.51.03-.71.09-.06.28-.13.58-.19.89-.06.3-.1.53-.12.68"/>
      <path class="cls-2" d="m95.93,30.59c.14,0,.29.06.45.18.16.11.23.24.23.37l-.02.19s-.02.13-.03.3c-.02.16-.02.3-.02.42,0,.51.04.99.11,1.43.08.44.18.9.3,1.37.27-.21.48-.51.63-.89.16-.38.29-.81.38-1.28.09-.48.17-.84.21-1.09.05-.26.12-.41.22-.46.1-.05.21-.08.31-.08.13,0,.2.04.2.13,0,.03-.02.12-.06.27-.03.16-.06.37-.09.65-.03.28-.04.54-.04.8,0,.39.03.73.08,1.02.05.28.12.51.21.7.37-.62.65-1.26.85-1.93.2-.66.3-1.27.3-1.8,0-.05.03-.1.09-.13.07-.04.14-.06.22-.06.1,0,.15.03.16.1v.24c0,.66-.15,1.5-.46,2.52-.31,1.01-.56,1.61-.75,1.82-.18.2-.31.31-.39.33-.08.02-.17.02-.27.02-.05,0-.11-.05-.19-.15-.07-.1-.16-.31-.27-.61-.11-.31-.2-.63-.27-.96-.18.41-.33.73-.45.96-.11.22-.25.43-.39.6-.15.18-.29.27-.44.27-.09,0-.16,0-.23-.02-.06-.01-.12-.12-.19-.34-.06-.21-.13-.49-.2-.83-.06-.35-.12-.78-.19-1.29-.06-.52-.1-.81-.14-.88-.03-.07-.08-.15-.14-.22-.06-.07-.11-.14-.14-.2-.03-.06-.04-.15-.04-.27,0-.13.02-.27.05-.41.03-.15.08-.31.14-.5.07-.19.15-.28.26-.28"/>
      <path class="cls-2" d="m122.29,57.68l-.03-.02c-.21,0-.4.1-.59.29-.18.19-.27.4-.27.63,0,.21.07.4.2.57.14.17.39.4.77.68.38.28.65.49.81.65.17.16.25.36.25.61,0,.03,0,.05,0,.09,0,.03,0,.08-.02.14l.18-.2s.04-.03.07-.03c.08,0,.12.05.12.14,0,.06-.03.14-.09.22-.06.08-.12.15-.2.23-.07.07-.14.13-.2.18-.18.28-.5.52-.96.71-.46.2-.9.3-1.32.3-.08,0-.19-.05-.31-.16-.12-.1-.18-.19-.18-.27,0-.04.02-.07.05-.11.03-.04.13-.1.3-.18.17-.08.39-.17.67-.27.28-.1.54-.18.79-.25.26-.07.4-.11.45-.13.04-.02.06-.09.06-.2,0-.14-.13-.3-.39-.47-.26-.18-.53-.36-.8-.55s-.49-.39-.65-.6c-.16-.21-.24-.46-.24-.74,0-.48.24-.95.71-1.4.48-.45,1.16-.68,2.03-.68.08,0,.13.07.13.2,0,.15-.08.29-.23.4-.15.11-.34.21-.57.3-.23.08-.43.12-.6.12,0-.03,0-.05.02-.09.02-.03.04-.06.06-.09l.02-.04Z"/>
      <path class="cls-2" d="m154.85,34.01h-4.75v-.6h4.75v.6Zm-60.09-.68h-4.75v-.6h4.75v.6Z"/>
    </g>
  </g>
</svg>